<?xml version="1.0" encoding="UTF-8" standalone="no"?>
<svg
   xmlns:dc="http://purl.org/dc/elements/1.1/"
   xmlns:cc="http://creativecommons.org/ns#"
   xmlns:rdf="http://www.w3.org/1999/02/22-rdf-syntax-ns#"
   xmlns:svg="http://www.w3.org/2000/svg"
   xmlns="http://www.w3.org/2000/svg"
   version="1.1"
   data-name="24x24/On Light/Notification-Alert"
   id="_24x24_On_Light_Notification-Alert"
   viewBox="0 0 24 24"
   height="48px"
   width="48px">
  <metadata
     id="metadata925">
    <rdf:RDF>
      <cc:Work
         rdf:about="">
        <dc:format>image/svg+xml</dc:format>
        <dc:type
           rdf:resource="http://purl.org/dc/dcmitype/StillImage" />
        <dc:title></dc:title>
      </cc:Work>
    </rdf:RDF>
  </metadata>
  <defs
     id="defs923" />
  <rect
     fill="none"
     height="24"
     width="24"
     id="view-box" />
  <path
     transform="scale(0.5)"
     d="M 23.494141 4.5 C 17.466002 4.7393309 12.17595 9.3944569 11.591797 15.824219 L 10.699219 25.644531 C 10.623731 26.508383 10.105817 27.270689 9.3300781 27.658203 C 7.5901257 28.518799 6.4920022 30.295196 6.5 32.236328 L 6.5 33 C 6.5033053 35.48391 8.516089 37.496694 11 37.5 L 18.5 37.5 L 18.5 38.5 C 18.5 45.83333 29.5 45.83333 29.5 38.5 L 29.5 37.496094 L 36.992188 37.496094 C 39.476555 37.493888 41.489987 35.480462 41.492188 32.996094 L 41.492188 32.232422 C 41.497443 30.289896 40.39752 28.513396 38.65625 27.652344 C 37.884268 27.262208 37.365283 26.50364 37.283203 25.642578 L 36.953125 22.017578 A 11.017698 11.017698 0 0 1 27.716797 5.0664062 C 26.302199 4.6233899 24.878809 4.4450255 23.494141 4.5 z "
     style="fill:#ffffff;stroke-width:2"
     id="Shape" />
  <path
     fill="#DC2626"
     transform="translate(15 2)"
     d="M3.5,7A3.5,3.5,0,1,1,7,3.5,3.5,3.5,0,0,1,3.5,7Z"
     data-name="Shape"
     id="Shape-2" />
  <path
     id="path927"
     d="M 13.868,2.536 Z"
     style="fill:none;stroke:#000000;stroke-width:0.5px;stroke-linecap:butt;stroke-linejoin:miter;stroke-opacity:1" />
</svg>
