<?xml version="1.0" encoding="UTF-8" standalone="no"?>
<svg
   xmlns:dc="http://purl.org/dc/elements/1.1/"
   xmlns:cc="http://creativecommons.org/ns#"
   xmlns:rdf="http://www.w3.org/1999/02/22-rdf-syntax-ns#"
   xmlns:svg="http://www.w3.org/2000/svg"
   xmlns="http://www.w3.org/2000/svg"
   version="1.1"
   data-name="24x24/On Light/Notification-Alert"
   id="_24x24_On_Light_Notification-Alert"
   viewBox="0 0 24 24"
   height="48px"
   width="48px">
  <metadata
     id="metadata925">
    <rdf:RDF>
      <cc:Work
         rdf:about="">
        <dc:format>image/svg+xml</dc:format>
        <dc:type
           rdf:resource="http://purl.org/dc/dcmitype/StillImage" />
        <dc:title></dc:title>
      </cc:Work>
    </rdf:RDF>
  </metadata>
  <defs
     id="defs923" />
  <rect
     fill="none"
     height="24"
     width="24"
     id="view-box" />
  <path
     fill="#ffffff"
     transform="translate(3.25,2.25)"
     d="M 6,17 V 16.5 H 2.25 C 1.0080445,16.498347 0.00165264,15.491955 0,14.25 V 13.868 C -0.00399889,12.897434 0.54502381,12.009298 1.415,11.579 1.8028694,11.385243 2.0622562,11.003926 2.1,10.572 l 0.446,-4.91 c 0.3594787,-3.9567765 4.2824205,-6.56947906 8.072,-5.376 4.34,1.2658318 4.409318,5.8411487 4.608,8.463 l 0.166,1.822 c 0.04104,0.430531 0.300009,0.809932 0.686,1.005 0.870635,0.430526 1.420628,1.318737 1.418,2.29 v 0.382 c -0.0011,1.242184 -1.007816,2.248897 -2.25,2.25 H 11.5 V 17 C 11.5,20.666665 6,20.666665 6,17 Z M 15.047,6.744 C 14.50212,6.7125689 13.972233,6.553637 13.5,6.28 L 13.456,5.8 C 13.349201,4.5622515 12.756688,3.4171339 11.808,2.615 c 0.09541,-0.5118244 0.303805,-0.9959159 0.61,-1.417 1.447045,1.0543189 2.369691,2.6809736 2.532,4.464 l 0.1,1.081 v 0 z"
     id="Shape" />
  <path
     fill="#ff6359"
     transform="translate(15 2)"
     d="M3.5,7A3.5,3.5,0,1,1,7,3.5,3.5,3.5,0,0,1,3.5,7Z"
     data-name="Shape"
     id="Shape-2" />
  <path
     id="path927"
     d="M 13.868,2.536 Z"
     style="fill:none;stroke:#000000;stroke-width:0.5px;stroke-linecap:butt;stroke-linejoin:miter;stroke-opacity:1" />
</svg>
