<?xml version="1.0" encoding="UTF-8" standalone="no"?>
<svg
   xmlns:dc="http://purl.org/dc/elements/1.1/"
   xmlns:cc="http://creativecommons.org/ns#"
   xmlns:rdf="http://www.w3.org/1999/02/22-rdf-syntax-ns#"
   xmlns:svg="http://www.w3.org/2000/svg"
   xmlns="http://www.w3.org/2000/svg"
   width="48px"
   height="48px"
   viewBox="0 0 24 24"
   id="_24x24_On_Light_Notification-Alert"
   data-name="24x24/On Light/Notification-Alert"
   version="1.1">
  <metadata
     id="metadata925">
    <rdf:RDF>
      <cc:Work
         rdf:about="">
        <dc:format>image/svg+xml</dc:format>
        <dc:type
           rdf:resource="http://purl.org/dc/dcmitype/StillImage" />
        <dc:title></dc:title>
      </cc:Work>
    </rdf:RDF>
  </metadata>
  <defs
     id="defs923" />
  <rect
     id="view-box"
     width="24"
     height="24"
     fill="none" />
  <path
     id="Shape"
     d="M 6,17 V 16.5 H 2.25 C 1.0080445,16.498347 0.00165264,15.491955 0,14.25 V 13.868 C -0.00399889,12.897434 0.54502381,12.009298 1.415,11.579 1.8028694,11.385243 2.0622562,11.003926 2.1,10.572 L 2.546,5.662 C 2.9054787,1.7052235 6.8284205,-0.90747906 10.618,0.286 10.343761,0.71240325 10.130054,1.174818 9.983,1.66 9.5806879,1.5533698 9.1662029,1.4995842 8.75,1.5 6.3008549,1.4885109 4.2534132,3.3597116 4.045,5.8 L 3.6,10.708 C 3.5158563,11.658136 2.9434708,12.496069 2.089,12.92 1.7275849,13.097937 1.4990473,13.466158 1.5,13.869 v 0.382 C 1.5011,14.664595 1.8364043,14.999451 2.25,15 h 13 c 0.413985,-5.51e-4 0.749449,-0.336015 0.75,-0.75 V 13.868 C 16.0016,13.466057 15.774257,13.098258 15.414,12.92 14.558368,12.496855 13.984746,11.658776 13.9,10.708 l -0.2,-2.18 c 0.495689,0.1453105 1.009453,0.2197154 1.526,0.221 l 0.166,1.822 c 0.04104,0.430531 0.300009,0.809932 0.686,1.005 0.870635,0.430526 1.420628,1.318737 1.418,2.29 v 0.382 c -0.0011,1.242184 -1.007816,2.248897 -2.25,2.25 H 11.5 V 17 c 0,3.666665 -5.5,3.666665 -5.5,0 z m 1.5,0 c 0,1.666666 2.5,1.666666 2.5,0 V 16.5 H 7.5 Z"
     transform="translate(3.25,2.25)"
     fill="#ffffff" />
  <path
     id="Shape-2"
     data-name="Shape"
     d="M3.5,7A3.5,3.5,0,1,1,7,3.5,3.5,3.5,0,0,1,3.5,7Z"
     transform="translate(15 2)"
     fill="#DC2626" />
</svg>
