<svg xmlns="http://www.w3.org/2000/svg" x="0px" y="0px"
width="40" height="40"
viewBox="0 0 172 172"
style=" fill:#000000;"><g fill="none" fill-rule="nonzero" stroke="none" stroke-width="1" stroke-linecap="butt" stroke-linejoin="miter" stroke-miterlimit="10" stroke-dasharray="" stroke-dashoffset="0" font-family="none" font-weight="none" font-size="none" text-anchor="none" style="mix-blend-mode: normal"><g fill="#ffffff"><path d="M46.30769,13.23077c-7.93329,0 -14.54868,7.3131 -13.23077,15.91827c1.31791,5.29747 5.29747,9.25121 9.92308,9.92308c4.6256,1.31791 8.68269,-0.05168 11.99038,-2.6875c2.63582,-2.63581 6.56371,-3.30769 10.54327,-3.30769h40.93269c3.97957,0 8.0625,1.29207 11.37019,3.92788c1.98978,1.98978 5.21996,2.6875 7.85577,2.6875c7.93329,0 14.54868,-7.3131 13.23077,-15.91827c-1.31791,-5.29747 -5.29747,-9.2512 -9.92308,-9.92308c-4.6256,-1.31791 -8.68269,0.05169 -11.99038,2.6875c-2.63581,2.63582 -6.5637,3.30769 -10.54327,3.30769h-13.85096v-6.61538h-13.23077v6.61538h-13.85096c-3.97956,0 -8.0625,-1.29206 -11.37019,-3.92788c-1.98978,-1.98978 -5.21995,-2.6875 -7.85577,-2.6875zM79.38462,39.69231v27.08173c-7.98497,1.62801 -14.88462,6.35697 -19.63942,12.61058h-33.28365v39.69231h33.28365c6.04688,7.93329 15.50481,13.23077 26.25481,13.23077c10.75,0 20.20794,-5.29747 26.25481,-13.23077h3.51442c9.84555,0 16.53846,7.28726 16.53846,16.53846v23.15385h39.69231v-23.15385c0,-30.4411 -25.04026,-56.23077 -56.23077,-56.23077h-3.51442c-4.75481,-6.2536 -11.65445,-10.98257 -19.63942,-12.61058v-27.08173zM0,52.92308v92.61538h10.54327c5.29747,0 9.30288,-4.00541 9.30288,-9.30288v-74.00962c0,-5.29747 -4.00541,-9.30288 -9.30288,-9.30288z"></path></g></g></svg>