<?xml version="1.0" encoding="iso-8859-1"?>
<svg version="1.1" id="Layer_1" xmlns="http://www.w3.org/2000/svg" xmlns:xlink="http://www.w3.org/1999/xlink" x="0px" y="0px" width="64" height="64" fill="white"
	 viewBox="0 0 512 512" style="enable-background:new 0 0 512 512;" xml:space="preserve">
<g>
	<g>
		<path d="M436.87,279.474v-147.3c0-11.526-9.343-20.87-20.87-20.87H272.582c-12.143-12.728-27.498-21.451-44.408-25.407V41.739
			h20.87c11.528,0,20.87-9.344,20.87-20.87S260.57,0,249.043,0h-41.739h-41.739c-11.524,0-20.87,9.344-20.87,20.87
			s9.345,20.87,20.87,20.87h20.87v44.159c-16.91,3.955-32.264,12.679-44.408,25.407h-59.94c-11.524,0-20.87,9.344-20.87,20.87
			v83.478c0,11.526,9.345,20.87,20.87,20.87h59.94c16.988,17.805,40.241,27.826,65.277,27.826c25.038,0,48.291-10.022,65.277-27.826
			h39.071v42.952c-8.1,2.867-13.913,10.574-13.913,19.656c0,11.526,9.345,20.87,20.87,20.87h13.913H416h13.913
			c11.527,0,20.87-9.344,20.87-20.87C450.783,290.048,444.971,282.343,436.87,279.474z"/>
	</g>
</g>
<g>
	<g>
		<path d="M389.359,368.2c-3.937-4.127-9.394-6.461-15.098-6.461s-11.158,2.335-15.098,6.461
			c-11.143,11.677-47.51,52.044-47.51,81.191c0,34.522,28.088,62.609,62.609,62.609s62.609-28.088,62.609-62.609
			C436.87,420.245,400.502,379.878,389.359,368.2z"/>
	</g>
</g>
</svg>