<?xml version="1.0" encoding="UTF-8" standalone="no"?>
<svg
   xmlns:dc="http://purl.org/dc/elements/1.1/"
   xmlns:cc="http://creativecommons.org/ns#"
   xmlns:rdf="http://www.w3.org/1999/02/22-rdf-syntax-ns#"
   xmlns:svg="http://www.w3.org/2000/svg"
   xmlns="http://www.w3.org/2000/svg"
   xml:space="preserve"
   viewBox="0 0 512 512"
   width="48px"
   height="48px"
   y="0px"
   x="0px"
   id="Layer_1"
   version="1.1"><metadata
   id="metadata875"><rdf:RDF><cc:Work
       rdf:about=""><dc:format>image/svg+xml</dc:format><dc:type
         rdf:resource="http://purl.org/dc/dcmitype/StillImage" /><dc:title></dc:title></cc:Work></rdf:RDF></metadata><defs
   id="defs873" />
<g
   id="g868">
	<g
   id="g866">
		<path
   id="path864"
   d="M 425.367,72.125 H 86.633 C 38.752,72.125 0,111.131 0,158.759 v 194.482 c 0,47.839 38.98,86.633 86.633,86.633 h 338.734 c 47.741,0 86.633,-38.888 86.633,-86.633 V 158.759 c 0,-47.69 -38.813,-86.634 -86.633,-86.634 z M 39.03,150.368 165.806,233.343 38.286,350.222 c 0,-208.053 -0.319,-193.808 0.744,-199.854 z M 425.367,401.589 H 86.633 c -12.865,0 -24.563,-5.061 -33.235,-13.284 L 198.861,254.979 c 59.59,39.003 66.629,31.186 114.278,0 l 145.463,133.326 c -8.671,8.223 -20.37,13.284 -33.235,13.284 z m 48.349,-51.367 -127.52,-116.879 126.776,-82.975 c 1.063,6.046 0.744,-8.162 0.744,199.854 z"
   style="fill:#ffffff" />
	</g>
</g>
</svg>
