<?xml version="1.0" encoding="UTF-8" standalone="no"?>
<svg
   xmlns:dc="http://purl.org/dc/elements/1.1/"
   xmlns:cc="http://creativecommons.org/ns#"
   xmlns:rdf="http://www.w3.org/1999/02/22-rdf-syntax-ns#"
   xmlns:svg="http://www.w3.org/2000/svg"
   xmlns="http://www.w3.org/2000/svg"
   xml:space="preserve"
   viewBox="0 0 1600 1280"
   fill="#ffffff"
   height="160"
   width="200"
   y="0px"
   x="0px"
   id="Layer_1"
   version="1.1"><metadata
   id="metadata895"><rdf:RDF><cc:Work
       rdf:about=""><dc:format>image/svg+xml</dc:format><dc:type
         rdf:resource="http://purl.org/dc/dcmitype/StillImage" /><dc:title></dc:title></cc:Work></rdf:RDF></metadata><defs
   id="defs893" />
<rect
   y="0"
   x="0"
   height="1280"
   width="1600"
   id="rect919"
   style="fill:#069669;fill-opacity:1;stroke-width:42.2563;stroke-linecap:round" /><g
   transform="translate(543.99501,384)"
   id="g882">
	<g
   id="g880">
		<path
   id="path878"
   d="m 436.87,279.474 v -147.3 c 0,-11.526 -9.343,-20.87 -20.87,-20.87 H 272.582 C 260.439,98.576 245.084,89.853 228.174,85.897 V 41.739 h 20.87 c 11.528,0 20.87,-9.344 20.87,-20.87 C 269.914,9.343 260.57,0 249.043,0 h -41.739 -41.739 c -11.524,0 -20.87,9.344 -20.87,20.87 0,11.526 9.345,20.87 20.87,20.87 h 20.87 v 44.159 c -16.91,3.955 -32.264,12.679 -44.408,25.407 h -59.94 c -11.524,0 -20.87,9.344 -20.87,20.87 v 83.478 c 0,11.526 9.345,20.87 20.87,20.87 h 59.94 c 16.988,17.805 40.241,27.826 65.277,27.826 25.038,0 48.291,-10.022 65.277,-27.826 h 39.071 v 42.952 c -8.1,2.867 -13.913,10.574 -13.913,19.656 0,11.526 9.345,20.87 20.87,20.87 H 332.522 416 429.913 c 11.527,0 20.87,-9.344 20.87,-20.87 0,-9.084 -5.812,-16.789 -13.913,-19.658 z" />
	</g>
</g>
<g
   transform="translate(543.99501,384)"
   id="g888">
	<g
   id="g886">
		<path
   id="path884"
   d="m 389.359,368.2 c -3.937,-4.127 -9.394,-6.461 -15.098,-6.461 -5.704,0 -11.158,2.335 -15.098,6.461 -11.143,11.677 -47.51,52.044 -47.51,81.191 0,34.522 28.088,62.609 62.609,62.609 34.521,0 62.609,-28.088 62.609,-62.609 -10e-4,-29.146 -36.369,-69.513 -47.512,-81.191 z" />
	</g>
</g>
<text
   id="text923"
   y="281.53342"
   x="791.17603"
   style="font-style:normal;font-variant:normal;font-weight:normal;font-stretch:normal;font-size:256px;line-height:1.25;font-family:ubuntu;-inkscape-font-specification:ubuntu;text-align:end;letter-spacing:0px;word-spacing:0px;text-anchor:end;fill:#ffffff;fill-opacity:1;stroke:none;stroke-width:8"
   xml:space="preserve"><tspan
     style="font-style:normal;font-variant:normal;font-weight:normal;font-stretch:normal;font-size:256px;font-family:ubuntu;-inkscape-font-specification:ubuntu;text-align:center;text-anchor:middle;fill:#ffffff;stroke-width:8"
     y="281.53342"
     x="791.17603"
     id="tspan921">Leaky</tspan></text><text
   xml:space="preserve"
   style="font-style:normal;font-variant:normal;font-weight:normal;font-stretch:normal;font-size:256px;line-height:1.25;font-family:ubuntu;-inkscape-font-specification:ubuntu;text-align:end;letter-spacing:0px;word-spacing:0px;text-anchor:end;fill:#ffffff;fill-opacity:1;stroke:none;stroke-width:8"
   x="807.17603"
   y="1177.5334"
   id="text923-9"><tspan
     id="tspan921-8"
     x="807.17603"
     y="1177.5334"
     style="font-style:normal;font-variant:normal;font-weight:normal;font-stretch:normal;font-size:256px;font-family:ubuntu;-inkscape-font-specification:ubuntu;text-align:center;text-anchor:middle;fill:#ffffff;stroke-width:8">Faucet</tspan></text></svg>
