<?xml version="1.0" encoding="iso-8859-1"?>
<!DOCTYPE svg PUBLIC "-//W3C//DTD SVG 1.1//EN" "http://www.w3.org/Graphics/SVG/1.1/DTD/svg11.dtd">
<svg version="1.1" id="Capa_1" xmlns="http://www.w3.org/2000/svg" xmlns:xlink="http://www.w3.org/1999/xlink" x="0px" y="0px" width="24" height="24"
	 viewBox="0 0 293.664 293.664" style="enable-background:new 0 0 293.664 293.664;" xml:space="preserve">
<path d="M292.028,177.446c0-13.656-11.071-24.728-24.728-24.728h-1.18c7.024-4.362,11.703-12.142,11.703-21.018
	c0-13.656-11.071-24.728-24.728-24.728h-92.114c17.146-31.735,23.275-55.121,29.095-75.029c3.351-11.427-1.936-23.94-13.01-29.298
	c-12.336-5.968-25.804-1.727-33.142,11.53c-16.51,29.827-42.372,66.986-82.754,108.385c-7.102,7.28-12.005,16.133-14.229,25.784
	H1.636v120.59h53.499c10.066,14.906,27.116,24.727,46.417,24.727c3.397,0,115.678,0.001,126.185,0.001
	c13.656,0,24.728-11.071,24.728-24.728c0-8.876-4.679-16.656-11.703-21.018h7.993c13.656,0,24.728-11.071,24.728-24.728
	c0-8.876-4.679-16.656-11.703-21.018h5.521C280.957,202.174,292.028,191.102,292.028,177.446z"/>
</svg>